<svg id="Layer_1" enable-background="new 0 0 64 64" height="512" viewBox="0 0 64 64" width="512" xmlns="http://www.w3.org/2000/svg"><path d="m33.1 17.7-1-.5-7.1 4.4v4.4l4 2.2v-2.6c0-.7.4-1.3.9-1.7l7.1-4.4c.6-.4 1.3-.4 2-.1l1 .5 5.1-3.2v-4.5l-10.1 5.5c-.6.2-1.3.3-1.9 0z"/><path d="m26.1 13.7-1-.5-7.1 4.4v4.4l5 2.8v-3.3c0-.7.4-1.3.9-1.7l7.1-4.4c.6-.4 1.3-.4 2-.1l1 .5 3-1.6v-5.5l-9.1 4.9c-.5.3-1.2.4-1.8.1z"/><path d="m16 17.6c0-.7.4-1.3.9-1.7l7.1-4.4c.6-.4 1.3-.4 2-.1l1 .5 9.5-5.2-4-2.3c-.3-.2-.7-.2-1 0l-22.5 12.6 7 3.9z"/><path d="m39 8.1v5l4.6-2.5z"/><path d="m8 18.7v3.7l4.3 2.2c1 .5 1.7 1.5 1.7 2.7v.9c1.6.6 2.4 2.3 1.8 3.8-.6 1.6-2.3 2.4-3.8 1.8s-2.4-2.3-1.8-3.8c.3-.9 1-1.5 1.8-1.8v-.9c0-.4-.2-.7-.6-.9l-3.4-1.8v21.2c0 .4.2.7.5.9l22.5 12.6v-2.7l-9.4-5.1c-1-.5-1.6-1.5-1.6-2.6v-3.7c0-.4-.2-.7-.5-.9l-3.5-2.1c-1.3 1.3-3.3 1.2-4.6 0s-1.2-3.3 0-4.6 3.3-1.2 4.6 0c.7.7 1.1 1.8.9 2.8l3.6 2.2c.9.5 1.5 1.5 1.5 2.6v3.7c0 .4.2.7.5.9l8.5 4.6v-9.7l-9.4-5.1c-1-.5-1.6-1.5-1.6-2.6v-2c-1.6-.6-2.4-2.3-1.8-3.8.6-1.6 2.3-2.4 3.8-1.8 1.6.6 2.4 2.3 1.8 3.8-.3.9-1 1.5-1.8 1.8v2c0 .4.2.7.5.9l8.5 4.6v-11c-.2 0-.3-.1-.5-.2z"/><path d="m47 12.5v2.9l2.4-1.5z"/><path d="m53 15.9v2.2l2-1.1z"/><circle cx="38" cy="35" r="1"/><path d="m56 38.4v-19.7l-22.5 12.6c-.1.1-.3.1-.5.2v4.9l2-1c0-.1 0-.2 0-.4 0-1.7 1.3-3 3-3s3 1.3 3 3-1.3 3-3 3c-.8 0-1.5-.3-2.1-.8l-2.9 1.4v9.7l8.5-4.6c.3-.2.5-.5.5-.9v-3.6c0-1.1.6-2.2 1.7-2.7l4.4-2.2c0-.1 0-.2 0-.4 0-1.7 1.3-3 3-3s3 1.3 3 3-1.3 3-3 3c-.8 0-1.5-.3-2.1-.8l-4.4 2.2c-.3.2-.6.5-.6.9v3.6c0 1.1-.6 2.1-1.6 2.6l-9.4 5.2v8.7l22.5-12.6c.3-.2.5-.5.5-.9v-5.2l-4 2v.4c0 1.7-1.3 3-3 3s-3-1.3-3-3 1.3-3 3-3c.8 0 1.5.3 2.1.8z"/><circle cx="21" cy="32" r="1"/><circle cx="51" cy="34" r="1"/><circle cx="49" cy="43" r="1"/><circle cx="14" cy="40" r="1"/><circle cx="13" cy="31" r="1"/><path d="m51 15.2-10 6.4c-.6.4-1.3.4-2 .1l-1-.5-7 4.4v3.7l.5.3c.3.2.7.2 1 0l18.5-10.4z"/></svg>